<svg xmlns="http://www.w3.org/2000/svg" width="71.974" height="70.974" viewBox="0 0 71.974 70.974">
  <g id="Group_261" data-name="Group 261" transform="translate(-420 -2709.516)">
    <path id="Path_172" data-name="Path 172" d="M-497.116,256.777l.552.527c.59-.624,1.136-1.238,1.721-1.812a5.367,5.367,0,0,1,7.72-.1,5.385,5.385,0,0,1-.1,7.736c-2.772,2.814-5.573,5.6-8.369,8.391a1.249,1.249,0,0,1-2.063.013c-2.83-2.827-5.745-5.577-8.429-8.538a2.463,2.463,0,0,0-2.858-.856,4.634,4.634,0,0,1-3.633-.307,1.746,1.746,0,0,0-1.083-.009,4.336,4.336,0,0,1-4.844-1.849.878.878,0,0,0-.6-.306,13.933,13.933,0,0,1-10.556-5.493,9.076,9.076,0,0,0-3.883-3c-2.289-.918-4.5-2.031-6.76-3.027a1.512,1.512,0,0,1-1.019-1.557c.017-5.781.007-11.562.011-17.343,0-1.4.8-1.9,2.052-1.279,4.646,2.311,9.281,4.642,13.936,6.934a3.536,3.536,0,0,0,1.561.345c5.693-.088,11.386-.217,17.08-.322a6.616,6.616,0,0,1,5.363,2.366c1.458,1.681,2.939,3.342,4.369,5.047a6.586,6.586,0,0,1,1.441,5.826q-.1.477-.211.952a4.421,4.421,0,0,0,.056,2.529A4.831,4.831,0,0,1-497.116,256.777ZM-538.849,230.9a1.593,1.593,0,0,0-.058.272c0,4.83,0,9.661-.017,14.491,0,.463.241.592.571.74,1.935.866,3.837,1.818,5.809,2.589a9.13,9.13,0,0,1,4.643,3.573,5.68,5.68,0,0,0,.777.913c2.719,2.749,5.953,4.281,9.846,3.582a23.378,23.378,0,0,0,4.63-1.831,5.105,5.105,0,0,1,2.809-.818c2.99.425,5.993.752,8.989,1.129a2.613,2.613,0,0,0,2.985-2.1,2.571,2.571,0,0,0-2.051-2.944c-1.092-.258-2.19-.493-3.287-.728q-3.951-.848-7.9-1.688a3.665,3.665,0,0,1-.361-.1,1.192,1.192,0,0,1-.9-1.429,1.154,1.154,0,0,1,1.362-.887c.829.128,1.647.321,2.564.505-.244-.633-.453-1.162-.651-1.7-.31-.833-.088-1.507.577-1.768a1.236,1.236,0,0,1,1.646.868c.369.9.7,1.818,1.083,2.714a1.066,1.066,0,0,0,.5.567,9.089,9.089,0,0,0,1.371.284c.329-.917.207-2.281,1.641-2.02,1.551.282.86,1.557.784,2.535l3.418.845a4.678,4.678,0,0,0-1.077-5.051c-1.323-1.432-2.585-2.921-3.837-4.416a4.562,4.562,0,0,0-3.818-1.7c-5.818.129-11.636.253-17.455.34a3.9,3.9,0,0,1-1.709-.4c-4.078-2-8.135-4.042-12.2-6.069C-538.382,231.1-538.606,231.005-538.849,230.9Zm42.2,38.259c.156-.14.269-.233.372-.336q3.654-3.66,7.3-7.324a3.014,3.014,0,0,0,.143-4.411,3.011,3.011,0,0,0-4.4.181c-.818.807-1.618,1.634-2.441,2.435a1.217,1.217,0,0,1-1.9.024c-.183-.17-.365-.343-.53-.53a2.879,2.879,0,0,0-2.628-1.276,15.632,15.632,0,0,1-3.56-.38.642.642,0,0,0-.786.485,2.861,2.861,0,0,0,.6,3.265C-501.915,263.912-499.3,266.493-496.646,269.155Zm-10.78-11.992c-.7-.087-1.394-.125-2.068-.27a2.279,2.279,0,0,0-1.708.306,1.361,1.361,0,0,0-.76,1.677,1.377,1.377,0,0,0,1.506,1.075c.906-.1,1.8-.294,2.645-.436Zm-7.033,1.647-1.271.452.007.17,1.415.138Z" transform="translate(961.32 2481.804)" fill="#003052"/>
    <path id="Path_173" data-name="Path 173" d="M-452.657,449.544A4.826,4.826,0,0,1-449,445.708a6.66,6.66,0,0,1,1.559-.134c3.472-.011,6.943.006,10.415-.023a1.78,1.78,0,0,0,1.051-.4,12.957,12.957,0,0,1,16.915-.02,1.947,1.947,0,0,0,1.119.417c1.522.047,3.047.012,4.57.022,1.04.007,1.455.421,1.456,1.458q.007,8.146,0,16.291c0,1.083-.431,1.6-1.486,1.5-4.615-.467-8.933.879-13.29,2.053-3.78,1.018-7.557,2.056-11.373,2.92a10.454,10.454,0,0,1-8.057-1.449q-10.583-6.669-21.1-13.441a4.9,4.9,0,0,1-1.766-6.336,4.856,4.856,0,0,1,6.025-2.445c3.153,1.028,6.294,2.1,9.44,3.145C-453.249,449.358-452.97,449.444-452.657,449.544Zm38.312-1.571c-1.376,0-2.676-.038-3.972.013a2.774,2.774,0,0,1-2.14-.825,10.366,10.366,0,0,0-13.986-.095,3.34,3.34,0,0,1-2.48.923c-3.647-.04-7.3-.026-10.944-.007a2.369,2.369,0,0,0-2.407,2.039,2.371,2.371,0,0,0,1.519,2.567,4.545,4.545,0,0,0,1.4.184c3.723.014,7.446,0,11.169.01.947,0,1.491.46,1.477,1.208-.013.717-.553,1.187-1.443,1.189-3.9.009-7.8.027-11.693-.007a4.737,4.737,0,0,1-4.294-2.551,1.3,1.3,0,0,0-.637-.55q-5.49-1.868-11-3.685a2.435,2.435,0,0,0-3.085,1.286,2.518,2.518,0,0,0,.951,3.228q10.545,6.738,21.115,13.437A8.2,8.2,0,0,0-438.3,467.4q7.952-1.975,15.855-4.144a19.164,19.164,0,0,1,6.415-.829c.56.038,1.125.006,1.688.006Z" transform="translate(903.889 2310.435)" fill="#003052"/>
  </g>
</svg>
