<svg xmlns="http://www.w3.org/2000/svg" width="358.703" height="270.17" viewBox="0 0 358.703 270.17">
  <g id="Group_223" data-name="Group 223" transform="translate(60.933 -77.38)">
    <g id="everyonebelongs" transform="translate(-60.933 77.38)">
      <path id="shape" d="M69.42,18.229C50.522,5.089,31.44-2.564,17.752.785,3.7,4.229-3.482,41.909,1.665,55.079A82.772,82.772,0,0,0,6.629,65.323c9.824,17.474,28.26,39.707,46.554,54.051,9.059,7.1,18.086,12.278,26.022,13.953,13.425,2.841,47.757-.086,55.254-11.817a9.232,9.232,0,0,0,.988-1.956c9.234-26.169-28.005-74.875-66.034-101.325" transform="translate(45.945 52.624) rotate(20)" fill="#febe10"/>
      <path id="shape2" d="M45.629,18.726C22.888,29.419,5.1,43.886.491,60.027c-4.734,16.58,25.974,48.494,41.01,51.829a80.23,80.23,0,0,0,12.231,1.614c21.636,1.389,52.511-2.9,76.024-12.2,11.647-4.6,21.49-10.432,27.507-17.423,10.166-11.833,26.787-48.755,20.187-64.053A12.54,12.54,0,0,0,176.2,17.5C157.272-8.987,91.414-2.8,45.64,18.714" transform="translate(107.653 154.979) rotate(-60)" fill="#f15d2a"/>
      <path id="shape3" d="M87.848,50.351c3.606-19.37,2.832-36.863-4.678-46.133C75.448-5.31,43.24,3.076,34.7,11.893a72.16,72.16,0,0,0-6.29,7.6C18.167,33.485,7.23,55.851,2.465,75.206.1,84.789-.758,93.637.752,100.349c2.543,11.359,17.086,36.659,28.985,38.1a8.542,8.542,0,0,0,1.893.039c23.884-2.558,48.957-49.153,56.225-88.136" transform="translate(271.528 270.17) rotate(-141)" fill="#7879b9"/>
    </g>
  </g>
</svg>
