<?xml version="1.0" encoding="UTF-8"?>
<svg xmlns="http://www.w3.org/2000/svg" id="Layer_2" data-name="Layer 2" viewBox="0 0 185 87">
  <defs>
    <style>
      .cls-1 {
        fill: #003052;
      }

      .cls-2 {
        fill: #e8a33b;
      }

      .cls-3 {
        fill: #f15d2a;
      }

      .cls-4 {
        fill: #febe10;
      }

      .cls-5 {
        fill: #6869a1;
      }

      .cls-6 {
        fill: #7879b9;
      }
    </style>
  </defs>
  <g id="Layer_1-2" data-name="Layer 1">
    <g>
      <path class="cls-1" d="m100.94,25.09v-6.95c0-.36-.03-.7-.08-1.03-.05-.33-.14-.62-.28-.86-.14-.24-.32-.43-.55-.58-.23-.14-.53-.22-.91-.22s-.67.08-.93.23c-.26.15-.49.36-.66.61-.18.26-.31.55-.4.88-.08.33-.13.68-.13,1.03v6.87h-4.19v-7.25c0-.73-.14-1.31-.43-1.74-.29-.43-.75-.64-1.38-.64-.66,0-1.18.26-1.55.79-.37.53-.55,1.17-.55,1.94v6.9h-4.21v-12.72h4.06v1.76h.05c.15-.27.35-.54.58-.79.23-.25.51-.48.83-.68.32-.2.69-.35,1.09-.47.4-.12.84-.18,1.32-.18.92,0,1.7.19,2.34.56.64.37,1.14.91,1.49,1.61.43-.66.97-1.19,1.64-1.58.66-.39,1.47-.59,2.43-.59.87,0,1.6.16,2.18.47.59.32,1.06.72,1.42,1.23.36.5.62,1.06.78,1.68.16.62.24,1.23.24,1.83v7.87h-4.19Z"></path>
      <path class="cls-1" d="m107.84,12.37h4.19v12.72h-4.19v-12.72Zm4.5-4.06c0,.32-.06.63-.19.91-.13.28-.3.52-.51.73-.21.2-.47.37-.77.49-.3.12-.61.18-.93.18-.68,0-1.25-.22-1.71-.68-.46-.45-.69-.99-.69-1.62,0-.31.06-.6.18-.88.12-.28.29-.52.51-.73.22-.2.48-.37.77-.5.29-.13.6-.19.95-.19.32,0,.63.06.93.18.3.12.55.28.77.49.21.2.38.45.51.73.13.28.19.58.19.91"></path>
      <path class="cls-1" d="m124.34,18.65c0-.43-.07-.83-.22-1.23-.14-.39-.35-.74-.63-1.04-.27-.3-.6-.53-.97-.7-.38-.17-.8-.26-1.28-.26s-.9.09-1.26.26c-.37.17-.68.4-.93.69-.26.29-.45.63-.59,1.02-.14.39-.21.81-.21,1.25s.07.83.21,1.23c.14.39.33.74.59,1.04.26.3.57.54.93.72.37.18.79.27,1.26.27s.91-.09,1.29-.27c.38-.18.71-.41.97-.7.26-.29.47-.63.61-1.02.14-.39.22-.81.22-1.25m3.98,5.24c0,1.24-.18,2.32-.54,3.24-.36.92-.86,1.68-1.51,2.29-.65.6-1.43,1.06-2.36,1.35-.93.3-1.95.45-3.08.45s-2.28-.17-3.46-.51c-1.18-.34-2.21-.83-3.08-1.48l2.09-2.99c.61.55,1.29.95,2.03,1.21.74.26,1.47.4,2.18.4,1.23,0,2.13-.32,2.72-.97.59-.65.88-1.51.88-2.58v-.77h-.08c-.39.51-.92.92-1.58,1.23-.66.31-1.42.46-2.27.46-.97,0-1.83-.17-2.58-.52-.75-.35-1.38-.82-1.9-1.42-.52-.6-.92-1.29-1.19-2.08-.27-.79-.41-1.63-.41-2.52s.14-1.73.41-2.53c.27-.8.67-1.51,1.19-2.12.52-.61,1.15-1.1,1.9-1.47.75-.37,1.6-.55,2.55-.55.8,0,1.57.16,2.3.48.73.32,1.32.83,1.76,1.51h.05v-1.64h3.96v11.52Z"></path>
      <path class="cls-1" d="m139.38,15.81c-.19-.05-.37-.09-.55-.1-.18-.02-.35-.03-.52-.03-.56,0-1.03.1-1.42.31-.38.2-.69.45-.92.74-.23.29-.4.6-.5.94-.1.34-.15.64-.15.89v6.52h-4.19v-12.7h4.04v1.84h.05c.32-.65.78-1.18,1.38-1.59.6-.41,1.29-.62,2.07-.62.17,0,.34,0,.5.03.16.02.29.04.4.08l-.18,3.7Z"></path>
      <path class="cls-1" d="m147.84,19.54h-.54c-.46,0-.92.02-1.39.06-.47.04-.89.12-1.25.24-.37.12-.67.29-.91.52-.24.23-.36.53-.36.91,0,.24.06.44.17.61.11.17.25.31.42.41.17.1.37.17.59.22.22.04.43.06.64.06.85,0,1.5-.23,1.95-.7.45-.47.68-1.1.68-1.9v-.43Zm-7.69-5.44c.75-.71,1.62-1.25,2.62-1.61,1-.36,2.01-.54,3.05-.54s1.98.13,2.72.4c.74.26,1.34.67,1.8,1.23.46.55.8,1.25,1.01,2.09.21.84.32,1.84.32,3v6.41h-3.83v-1.35h-.08c-.32.53-.81.94-1.47,1.23-.66.29-1.37.43-2.13.43-.51,0-1.04-.07-1.58-.2-.55-.14-1.04-.36-1.49-.66-.45-.31-.82-.71-1.11-1.23-.29-.51-.43-1.14-.43-1.89,0-.92.25-1.66.75-2.22s1.15-1,1.94-1.3c.79-.31,1.67-.51,2.64-.61.97-.1,1.92-.15,2.84-.15v-.21c0-.63-.22-1.09-.66-1.39-.44-.3-.99-.45-1.63-.45-.6,0-1.17.13-1.72.38-.55.25-1.03.56-1.42.92l-2.12-2.27Z"></path>
      <path class="cls-1" d="m162.63,25.09v-6.95c0-.36-.03-.7-.09-1.02-.06-.32-.16-.61-.29-.86-.14-.25-.33-.44-.57-.59-.25-.14-.56-.22-.93-.22s-.7.07-.98.22c-.28.14-.51.34-.7.6-.19.25-.33.55-.42.88-.09.33-.14.68-.14,1.04v6.9h-4.21v-12.72h4.06v1.76h.05c.15-.27.35-.54.6-.8.25-.26.54-.49.87-.68.33-.19.69-.34,1.09-.46.39-.12.81-.18,1.25-.18.85,0,1.58.15,2.17.46.6.31,1.08.7,1.44,1.19s.63,1.04.79,1.67c.16.63.24,1.26.24,1.89v7.87h-4.21Z"></path>
      <path class="cls-1" d="m174.04,15.48v4.87c0,.6.12,1.05.34,1.35.23.3.64.45,1.24.45.21,0,.42-.02.65-.05.23-.03.42-.09.58-.15l.05,3.07c-.29.1-.66.19-1.1.27-.44.08-.89.11-1.33.11-.85,0-1.57-.11-2.15-.32-.58-.21-1.04-.52-1.39-.92-.35-.4-.6-.88-.75-1.43-.15-.55-.23-1.17-.23-1.86v-5.38h-2.04v-3.12h2.02v-3.35h4.11v3.35h2.99v3.12h-2.99Z"></path>
      <path class="cls-1" d="m92.95,37.54c-.19-.05-.37-.09-.55-.1-.18-.02-.35-.03-.52-.03-.56,0-1.03.1-1.42.31-.38.2-.69.45-.92.74-.23.29-.4.6-.5.94-.1.34-.15.64-.15.89v6.52h-4.19v-12.7h4.04v1.84h.05c.32-.65.78-1.18,1.38-1.59.6-.41,1.29-.62,2.07-.62.17,0,.34,0,.5.03.16.02.29.04.4.08l-.18,3.7Z"></path>
      <path class="cls-1" d="m102.6,39c0-.66-.21-1.23-.63-1.71-.42-.48-1.04-.71-1.88-.71-.41,0-.78.06-1.12.19-.34.13-.64.3-.89.52-.26.22-.46.48-.61.78-.15.3-.24.61-.25.93h5.39Zm3.86,1.61v.51c0,.17,0,.33-.03.49h-9.22c.03.36.14.68.32.97.18.29.41.54.69.75.28.21.6.38.95.5s.71.18,1.09.18c.66,0,1.23-.12,1.69-.37.46-.25.83-.57,1.12-.96l2.91,1.84c-.6.87-1.38,1.54-2.36,2-.98.47-2.12.7-3.41.7-.95,0-1.86-.15-2.71-.45-.85-.3-1.6-.73-2.23-1.3-.64-.57-1.14-1.27-1.51-2.11-.37-.83-.55-1.79-.55-2.86s.18-1.98.54-2.82c.36-.84.84-1.56,1.46-2.15.61-.59,1.34-1.04,2.17-1.37.83-.32,1.74-.49,2.71-.49s1.8.16,2.58.47c.78.32,1.46.77,2.02,1.37.56.6,1,1.32,1.32,2.17.32.85.47,1.82.47,2.91"></path>
      <path class="cls-1" d="m116.04,37.85c-.34-.32-.74-.6-1.2-.82-.46-.22-.95-.33-1.46-.33-.39,0-.75.08-1.09.23-.33.15-.5.42-.5.79s.18.61.55.77c.37.15.96.32,1.77.51.48.1.96.25,1.44.43.49.19.92.43,1.32.74.39.31.71.68.95,1.12.24.44.36.97.36,1.58,0,.8-.16,1.48-.49,2.03-.32.55-.75,1-1.26,1.34-.52.34-1.1.59-1.75.74-.65.15-1.29.23-1.94.23-1.04,0-2.06-.17-3.05-.5-1-.33-1.83-.82-2.49-1.47l2.35-2.48c.37.41.83.75,1.38,1.02.55.27,1.12.41,1.74.41.34,0,.68-.08,1.01-.24.33-.16.5-.45.5-.86s-.2-.68-.61-.87c-.41-.19-1.05-.38-1.92-.59-.44-.1-.89-.24-1.33-.41-.44-.17-.84-.4-1.19-.69-.35-.29-.63-.65-.86-1.07-.22-.42-.33-.94-.33-1.53,0-.77.16-1.42.49-1.95.32-.54.74-.97,1.25-1.32.51-.34,1.08-.59,1.7-.75.62-.16,1.24-.24,1.85-.24.95,0,1.89.15,2.8.45.91.3,1.68.75,2.31,1.34l-2.3,2.38Z"></path>
      <path class="cls-1" d="m129.55,40.4c0-.41-.07-.81-.21-1.2-.14-.39-.33-.74-.59-1.03-.26-.3-.57-.54-.95-.73-.37-.19-.81-.28-1.3-.28s-.93.09-1.3.28c-.37.19-.68.43-.93.73-.25.3-.43.64-.56,1.03-.13.39-.19.79-.19,1.2s.06.81.19,1.2c.13.39.32.75.58,1.06.26.32.57.57.95.75.37.19.81.28,1.3.28s.93-.09,1.3-.28.69-.44.95-.75c.26-.31.45-.67.57-1.06.13-.39.19-.79.19-1.2m4.04,0c0,1.04-.19,1.98-.56,2.82-.38.84-.89,1.56-1.53,2.15-.65.59-1.4,1.04-2.25,1.37s-1.76.49-2.73.49-1.86-.16-2.72-.49c-.86-.32-1.61-.78-2.25-1.37-.64-.59-1.14-1.3-1.52-2.15-.38-.84-.56-1.78-.56-2.82s.19-1.97.56-2.81c.37-.83.88-1.54,1.52-2.12.64-.58,1.39-1.02,2.25-1.33.86-.31,1.77-.46,2.72-.46s1.88.15,2.73.46c.85.31,1.6.75,2.25,1.33.65.58,1.16,1.29,1.53,2.12.37.83.56,1.77.56,2.81"></path>
      <path class="cls-1" d="m144.11,46.81v-1.76h-.05c-.15.29-.35.56-.6.82-.25.26-.54.48-.87.66s-.7.34-1.1.46c-.4.12-.82.18-1.26.18-.85,0-1.57-.15-2.16-.46-.59-.31-1.06-.7-1.43-1.19-.37-.49-.63-1.04-.79-1.66-.16-.62-.24-1.26-.24-1.9v-7.87h4.21v6.9c0,.36.03.7.08,1.02.05.32.15.61.29.87.14.26.34.46.57.6.24.14.55.22.95.22.73,0,1.29-.27,1.67-.82.38-.54.58-1.18.58-1.92v-6.87h4.19v12.72h-4.04Z"></path>
      <path class="cls-1" d="m159.15,37.54c-.19-.05-.37-.09-.55-.1-.18-.02-.35-.03-.52-.03-.56,0-1.03.1-1.42.31-.38.2-.69.45-.92.74-.23.29-.4.6-.5.94-.1.34-.15.64-.15.89v6.52h-4.19v-12.7h4.04v1.84h.05c.32-.65.78-1.18,1.38-1.59.6-.41,1.29-.62,2.07-.62.17,0,.34,0,.5.03.16.02.29.04.4.08l-.18,3.7Z"></path>
      <path class="cls-1" d="m168.83,38.21c-.24-.31-.56-.55-.97-.74-.41-.19-.83-.28-1.25-.28s-.84.09-1.2.27c-.36.18-.66.42-.92.72-.26.3-.46.64-.6,1.03-.14.39-.22.81-.22,1.25s.07.86.2,1.25c.14.39.34.74.6,1.03.26.3.58.53.95.7.37.17.78.26,1.24.26.43,0,.85-.08,1.26-.24.42-.16.75-.4,1.01-.7l2.32,2.84c-.53.51-1.21.91-2.04,1.2s-1.72.43-2.66.43c-1,0-1.94-.15-2.81-.46-.87-.31-1.63-.75-2.27-1.34-.64-.59-1.15-1.3-1.52-2.13-.37-.83-.55-1.78-.55-2.84s.18-1.97.55-2.81c.37-.83.87-1.55,1.52-2.13.64-.59,1.4-1.04,2.27-1.35.87-.32,1.8-.47,2.79-.47.46,0,.91.04,1.37.13.45.09.89.2,1.3.34.42.14.8.32,1.15.54.35.21.65.45.91.7l-2.43,2.81Z"></path>
      <path class="cls-1" d="m181.14,39c0-.66-.21-1.23-.63-1.71-.42-.48-1.04-.71-1.88-.71-.41,0-.78.06-1.12.19-.34.13-.64.3-.89.52-.26.22-.46.48-.61.78-.15.3-.24.61-.26.93h5.39Zm3.86,1.61v.51c0,.17,0,.33-.03.49h-9.22c.03.36.14.68.32.97.18.29.41.54.69.75.28.21.6.38.95.5s.71.18,1.09.18c.66,0,1.23-.12,1.69-.37.46-.25.83-.57,1.12-.96l2.91,1.84c-.6.87-1.38,1.54-2.36,2-.98.47-2.12.7-3.41.7-.95,0-1.86-.15-2.71-.45s-1.6-.73-2.23-1.3c-.64-.57-1.14-1.27-1.51-2.11-.37-.83-.55-1.79-.55-2.86s.18-1.98.54-2.82c.36-.84.84-1.56,1.46-2.15.61-.59,1.34-1.04,2.17-1.37.83-.32,1.74-.49,2.71-.49s1.8.16,2.58.47c.78.32,1.46.77,2.02,1.37.56.6,1,1.32,1.32,2.17.32.85.47,1.82.47,2.91"></path>
      <path class="cls-1" d="m93.48,59.93c-.24-.31-.56-.55-.97-.74-.41-.19-.83-.28-1.25-.28s-.84.09-1.2.27c-.36.18-.66.42-.92.71-.26.3-.46.64-.6,1.03-.14.39-.22.81-.22,1.25s.07.86.2,1.25c.14.39.34.74.6,1.03.26.3.58.53.95.7.37.17.78.26,1.24.26.43,0,.85-.08,1.26-.24.42-.16.75-.4,1.01-.7l2.32,2.84c-.53.51-1.21.91-2.04,1.2-.83.29-1.72.43-2.66.43-1,0-1.94-.15-2.81-.46-.87-.31-1.63-.75-2.27-1.34-.64-.59-1.15-1.3-1.52-2.13-.37-.83-.55-1.78-.55-2.83s.18-1.97.55-2.81c.37-.83.87-1.55,1.52-2.13.64-.59,1.4-1.04,2.27-1.35.87-.31,1.8-.47,2.79-.47.46,0,.91.04,1.37.13.45.09.88.2,1.3.34.42.14.8.32,1.15.54.35.21.65.45.91.7l-2.43,2.81Z"></path>
      <path class="cls-1" d="m105.79,60.73c0-.66-.21-1.23-.63-1.71-.42-.48-1.04-.72-1.88-.72-.41,0-.78.06-1.12.19-.34.13-.64.3-.89.52-.26.22-.46.48-.61.78-.15.3-.24.61-.26.93h5.39Zm3.86,1.61v.51c0,.17,0,.33-.03.49h-9.22c.03.36.14.68.32.97.18.29.41.54.69.75.28.21.6.38.95.5s.71.18,1.09.18c.66,0,1.23-.12,1.69-.37.46-.25.83-.57,1.12-.96l2.91,1.84c-.6.87-1.38,1.54-2.36,2-.98.47-2.12.7-3.41.7-.95,0-1.86-.15-2.71-.45-.85-.3-1.6-.73-2.24-1.3-.64-.57-1.14-1.27-1.51-2.11-.37-.83-.55-1.79-.55-2.86s.18-1.98.54-2.82c.36-.84.84-1.56,1.46-2.15.61-.59,1.34-1.04,2.17-1.37.83-.32,1.74-.49,2.71-.49s1.8.16,2.58.47c.78.32,1.46.77,2.02,1.37.56.6,1,1.32,1.32,2.17.32.85.47,1.82.47,2.91"></path>
      <path class="cls-1" d="m120.1,68.54v-6.95c0-.36-.03-.7-.09-1.02-.06-.32-.16-.61-.29-.86-.14-.25-.33-.44-.57-.59-.25-.14-.56-.22-.93-.22s-.7.07-.98.22c-.28.14-.52.34-.7.6-.19.26-.33.55-.42.88-.09.33-.14.68-.14,1.04v6.9h-4.21v-12.72h4.06v1.76h.05c.15-.27.35-.54.6-.8.25-.26.54-.49.87-.68s.69-.34,1.09-.46c.39-.12.81-.18,1.25-.18.85,0,1.57.15,2.17.46.6.31,1.08.7,1.44,1.19.37.49.63,1.04.79,1.67.16.63.24,1.26.24,1.89v7.87h-4.21Z"></path>
      <path class="cls-1" d="m131.51,58.94v4.87c0,.6.12,1.05.34,1.35.23.3.64.45,1.24.45.21,0,.42-.02.65-.05.23-.03.42-.09.57-.15l.05,3.07c-.29.1-.66.19-1.1.27-.44.08-.89.11-1.33.11-.85,0-1.57-.11-2.15-.32-.58-.21-1.04-.52-1.39-.92-.35-.4-.6-.88-.75-1.43s-.23-1.17-.23-1.86v-5.38h-2.04v-3.12h2.02v-3.35h4.11v3.35h2.99v3.12h-2.99Z"></path>
      <path class="cls-1" d="m144.21,59.27c-.19-.05-.37-.09-.55-.1-.18-.02-.35-.03-.52-.03-.56,0-1.03.1-1.42.31-.38.2-.69.45-.92.74-.23.29-.4.6-.5.94-.1.34-.15.64-.15.89v6.52h-4.19v-12.7h4.04v1.84h.05c.32-.65.78-1.18,1.38-1.59.6-.41,1.29-.62,2.07-.62.17,0,.34,0,.5.03.16.02.29.04.4.08l-.18,3.7Z"></path>
      <path class="cls-1" d="m153.86,60.73c0-.66-.21-1.23-.63-1.71-.42-.48-1.04-.72-1.88-.72-.41,0-.78.06-1.12.19-.34.13-.64.3-.89.52-.26.22-.46.48-.61.78-.15.3-.24.61-.25.93h5.39Zm3.86,1.61v.51c0,.17,0,.33-.03.49h-9.22c.03.36.14.68.32.97.18.29.41.54.69.75.28.21.6.38.95.5s.71.18,1.09.18c.66,0,1.23-.12,1.69-.37.46-.25.83-.57,1.12-.96l2.91,1.84c-.6.87-1.38,1.54-2.36,2-.98.47-2.12.7-3.41.7-.95,0-1.86-.15-2.71-.45-.85-.3-1.6-.73-2.23-1.3-.64-.57-1.14-1.27-1.51-2.11-.37-.83-.55-1.79-.55-2.86s.18-1.98.54-2.82c.36-.84.84-1.56,1.46-2.15.61-.59,1.34-1.04,2.17-1.37.83-.32,1.74-.49,2.71-.49s1.8.16,2.58.47c.78.32,1.46.77,2.02,1.37.56.6,1,1.32,1.32,2.17.32.85.47,1.82.47,2.91"></path>
      <polygon class="cls-3" points="84.37 79.47 84.37 80.65 86.62 80.65 86.62 86.81 87.92 86.81 87.92 80.65 90.17 80.65 90.17 79.47 84.37 79.47"></polygon>
      <path class="cls-3" d="m95.09,81.02l1.13,2.99h-2.28l1.15-2.99Zm-.53-1.55l-3.19,7.34h1.46l.66-1.68h3.18l.68,1.68h1.49l-3.16-7.34h-1.13Z"></path>
      <path class="cls-3" d="m105.34,81.05c-.14-.2-.32-.35-.55-.44-.23-.09-.48-.14-.73-.14-.15,0-.3.02-.44.05-.14.04-.27.09-.38.17s-.21.17-.28.3c-.07.12-.1.26-.1.43,0,.25.09.44.26.57.17.13.39.25.64.34.26.1.54.19.84.28.31.09.58.21.84.37.26.16.47.37.64.63.17.26.26.61.26,1.05,0,.39-.07.74-.22,1.03-.15.29-.34.54-.59.73-.25.19-.53.34-.86.43-.33.1-.67.15-1.03.15-.46,0-.89-.08-1.32-.23-.42-.15-.78-.41-1.09-.77l.98-.95c.16.24.37.43.63.57.26.13.53.2.82.2.15,0,.3-.02.46-.06.15-.04.29-.1.41-.19.13-.08.23-.19.3-.32.08-.13.11-.28.11-.44,0-.27-.09-.48-.26-.62-.17-.15-.39-.27-.64-.37-.26-.1-.54-.19-.84-.28-.3-.09-.58-.21-.84-.37-.26-.16-.47-.36-.64-.62-.17-.26-.26-.61-.26-1.04,0-.38.08-.71.23-.99.16-.28.36-.51.61-.69.25-.18.54-.32.86-.41.32-.09.66-.14,1-.14.39,0,.76.06,1.13.18.36.12.69.31.98.58l-.95,1.01Z"></path>
      <polygon class="cls-3" points="115.73 79.47 113.75 84.61 111.79 79.47 109.8 79.47 109.8 86.81 111.04 86.81 111.04 80.71 111.06 80.71 113.29 86.81 114.21 86.81 116.44 80.71 116.46 80.71 116.46 86.81 117.7 86.81 117.7 79.47 115.73 79.47"></polygon>
      <path class="cls-3" d="m124.35,81.02l1.13,2.99h-2.28l1.15-2.99Zm-.53-1.55l-3.19,7.34h1.46l.66-1.68h3.18l.68,1.68h1.49l-3.16-7.34h-1.13Z"></path>
      <polygon class="cls-3" points="136.31 79.47 136.31 84.92 136.29 84.92 132.73 79.47 131 79.47 131 86.81 132.31 86.81 132.31 81.18 132.33 81.18 135.96 86.81 137.62 86.81 137.62 79.47 136.31 79.47"></polygon>
      <rect class="cls-3" x="141.3" y="79.47" width="1.31" height="7.34"></rect>
      <path class="cls-3" d="m149.19,81.02l1.13,2.99h-2.28l1.15-2.99Zm-.53-1.55l-3.19,7.34h1.46l.66-1.68h3.18l.68,1.68h1.49l-3.16-7.34h-1.13Z"></path>
      <path class="cls-3" d="m46.05,3.72c-2.32-.03-4.76,2.49-6.62,5.62,10.25,11.1,18.39,29.05,13.19,36.47-.14.19-.3.37-.49.53,4.8,2.14,15.75,2.77,18.53-.53,7.94-9.45-11.67-41.92-24.62-42.09"></path>
      <path class="cls-6" d="m.84,45.82c2.46,3.93,15.75,2.73,19.68,0,1.66-1.15,3.74-3.72,5.21-6.31-4.8-5.84-8.98-14.15-10.75-20.32C6.86,22.14-2.95,39.77.84,45.82"></path>
      <path class="cls-4" d="m36.28,19.35c-.25-2.35,1.11-6.56,3.16-10.01C34.35,3.83,28.73,0,23.98,0s-10.37,11.15-9.77,15.63c.14,1.06.4,2.26.77,3.56.95-.35,1.88-.49,2.76-.39,4.88.55,10.1,11.2,9.84,15.73-.08,1.34-.82,3.16-1.85,4.98,2.38,2.89,4.9,5.19,7.36,6.31,4.16,1.9,15.64,3.6,19.06.53-.38-.17-.72-.35-1.02-.53-6.66-4.21-14.05-19.05-14.85-26.46"></path>
      <path class="cls-2" d="m39.44,9.34c-2.05,3.45-3.41,7.66-3.16,10.01.8,7.41,8.19,22.25,14.85,26.46.29.19.64.36,1.02.53.18-.16.35-.34.49-.53,5.2-7.42-2.95-25.37-13.19-36.47"></path>
      <path class="cls-5" d="m17.73,18.79c-.88-.1-1.81.05-2.75.39,1.76,6.17,5.95,14.48,10.75,20.32,1.03-1.81,1.77-3.64,1.85-4.98.26-4.54-4.96-15.18-9.84-15.73"></path>
    </g>
  </g>
</svg>
