<svg width="51" height="50" viewBox="0 0 51 50" fill="none" xmlns="http://www.w3.org/2000/svg">
<g clip-path="url(#clip0_1008_16587)">
<path d="M51 0H0V50H51V0Z" fill="#0054A4"/>
<path d="M12.4496 20.1318C13.4661 19.6879 14.2977 18.9108 14.8005 17.9417L11.8508 15.9162L15.3233 15.9446C15.3233 13.3233 13.1553 11.0469 10.4815 11.0469C7.80767 11.0469 5.63965 13.1723 5.63965 15.7937C5.63965 17.7663 6.86709 19.4566 8.61331 20.174C7.40685 20.5826 6.38031 21.3567 5.67763 22.3582V33.3334H15.6032L15.6052 22.3474C14.8785 21.3156 13.746 20.5267 12.4496 20.1318Z" fill="white"/>
<path d="M27.3132 20.1198C29.0624 19.4318 30.2988 17.7552 30.2988 15.7943C30.2988 13.2201 28.1698 11.1338 25.545 11.1338C22.9202 11.1338 20.7911 13.2201 20.7911 15.7943C20.7911 17.7395 22.0076 19.4064 23.7358 20.1041C22.4314 20.4902 21.3199 21.2967 20.5742 22.3579V33.3331H30.5117L30.5137 22.3471C29.7781 21.3045 28.6286 20.5098 27.3142 20.1188L27.3132 20.1198ZM28.3447 15.956L25.543 17.9531L22.7412 15.956H28.3437H28.3447Z" fill="white"/>
<path d="M42.4443 20.1906C44.2145 19.4841 45.462 17.7819 45.462 15.7937C45.462 13.1723 43.2939 11.0469 40.6202 11.0469C37.9464 11.0469 35.7783 13.3233 35.7783 15.9446L39.2508 15.9162L36.3011 17.9417C36.7969 18.8971 37.6125 19.6663 38.6101 20.1132C37.3196 20.5032 36.2201 21.3048 35.4805 22.3582V33.3334H45.417L45.419 22.3474C44.7263 21.3655 43.6648 20.6022 42.4453 20.1906H42.4443Z" fill="white"/>
<path d="M20.4969 16.3755L19.5244 17.0507H15.917V15.6592H19.5244L20.4969 16.3755Z" fill="white"/>
<path d="M15.1328 18.1595L16.1044 17.4844H19.7117V18.8759H16.1044L15.1328 18.1595Z" fill="white"/>
<path d="M35.5624 16.3755L34.5898 17.0507H30.9824V15.6592H34.5898L35.5624 16.3755Z" fill="white"/>
<path d="M30.1982 18.1595L31.1698 17.4844H34.7772V18.8759H31.1698L30.1982 18.1595Z" fill="white"/>
<path d="M4.15954 34.8828H2.87012V41.659H4.15954V34.8828Z" fill="white"/>
<path d="M6.42322 36.6401V37.4995C6.79905 36.8351 7.33681 36.5039 8.03749 36.5039C9.17498 36.5039 9.73272 37.1487 9.73272 38.4471V41.6593H8.58524V38.4569C8.58524 37.7347 8.27038 37.3633 7.70164 37.3633C7.02095 37.3633 6.49319 37.9199 6.49319 38.7891V41.6593H5.3457V36.6401H6.42222H6.42322Z" fill="white"/>
<path d="M12.17 36.6405H13.3374V37.4117H12.17V39.8429C12.17 40.5749 12.2819 40.8973 12.9006 40.8973C13.0836 40.8973 13.2765 40.8777 13.4794 40.8287V41.6979C13.1955 41.7567 12.9206 41.7959 12.6467 41.7959C11.3983 41.7959 11.0025 41.2295 11.0025 39.9213V37.4117H10.1299V36.6405H11.0335L11.0745 35.3421L12.171 35.2539V36.6405H12.17Z" fill="white"/>
<path d="M14.9203 39.3447C14.9203 40.3697 15.4381 40.9459 16.2607 40.9459C16.8295 40.9459 17.2862 40.6431 17.4792 40.0963L18.6056 40.2139C18.2298 41.2389 17.3872 41.7955 16.1997 41.7955C14.6764 41.7955 13.6719 40.7509 13.6719 39.1595C13.6719 37.5681 14.6874 36.5039 16.1697 36.5039C17.6521 36.5039 18.6566 37.5093 18.6566 39.1399V39.3153H14.9203V39.3447ZM17.4182 38.6127C17.3882 37.7533 16.9414 37.3045 16.1697 37.3045C15.4891 37.3045 15.0123 37.7729 14.9413 38.6127H17.4182Z" fill="white"/>
<path d="M22.22 37.5965C22.108 37.5867 22.017 37.5867 21.9661 37.5867C21.1235 37.5867 20.5747 38.1825 20.5747 39.1683V41.6583H19.4072V36.6391H20.4727V37.7229C20.7366 36.9027 21.2134 36.502 21.9451 36.502C22.026 36.502 22.118 36.502 22.219 36.5118V37.5956L22.22 37.5965Z" fill="white"/>
<path d="M22.6367 36.641H23.7233V37.5974C24.0381 36.885 24.5659 36.5234 25.2865 36.5234C26.434 36.5234 27.1947 37.4896 27.1947 39.1693C27.1947 40.8489 26.3621 41.7857 25.1536 41.7857C24.5449 41.7857 24.0871 41.5025 23.7932 40.9361V43.3967H22.6357V36.64L22.6367 36.641ZM24.8907 40.8685C25.5504 40.8685 25.9462 40.2629 25.9462 39.1595C25.9462 38.056 25.5504 37.4799 24.9107 37.4799C24.332 37.4799 23.7942 38.0463 23.7942 38.7195V39.5593C23.7942 40.3697 24.292 40.8675 24.8907 40.8675V40.8685Z" fill="white"/>
<path d="M30.8293 37.5965C30.7174 37.5867 30.6264 37.5867 30.5754 37.5867C29.7328 37.5867 29.1841 38.1825 29.1841 39.1683V41.6583H28.0166V36.6391H29.0831V37.7229C29.347 36.9027 29.8248 36.502 30.5555 36.502C30.6364 36.502 30.7284 36.502 30.8293 36.5118V37.5956V37.5965Z" fill="white"/>
<path d="M32.1791 39.3447C32.1791 40.3697 32.6969 40.9459 33.5195 40.9459C34.0882 40.9459 34.545 40.6431 34.7379 40.0963L35.8644 40.2139C35.4886 41.2389 34.646 41.7955 33.4585 41.7955C31.9352 41.7955 30.9307 40.7509 30.9307 39.1595C30.9307 37.5681 31.9462 36.5039 33.4285 36.5039C34.9109 36.5039 35.9154 37.5093 35.9154 39.1399V39.3153H32.1791V39.3447ZM34.677 38.6127C34.647 37.7533 34.2002 37.3045 33.4285 37.3045C32.7488 37.3045 32.2711 37.7729 32.2001 38.6127H34.677Z" fill="white"/>
<path d="M38.0782 36.6405H39.2457V37.4117H38.0782V39.8429C38.0782 40.5749 38.1901 40.8973 38.8089 40.8973C38.9918 40.8973 39.1847 40.8777 39.3876 40.8287V41.6979C39.1037 41.7567 38.8289 41.7959 38.555 41.7959C37.3065 41.7959 36.9107 41.2295 36.9107 39.9213V37.4117H36.0371V36.6405H36.9407L36.9817 35.3421L38.0782 35.2539V36.6405Z" fill="white"/>
<path d="M40.8295 39.3447C40.8295 40.3697 41.3473 40.9459 42.1699 40.9459C42.7386 40.9459 43.1954 40.6431 43.3883 40.0963L44.5148 40.2139C44.139 41.2389 43.2964 41.7955 42.1089 41.7955C40.5856 41.7955 39.5811 40.7509 39.5811 39.1595C39.5811 37.5681 40.5966 36.5039 42.0789 36.5039C43.5613 36.5039 44.5658 37.5093 44.5658 39.1399V39.3153H40.8295V39.3447ZM43.3274 38.6127C43.2974 37.7533 42.8506 37.3045 42.0789 37.3045C41.3992 37.3045 40.9215 37.7729 40.8505 38.6127H43.3274Z" fill="white"/>
<path d="M48.1282 37.5965C48.0162 37.5867 47.9253 37.5867 47.8743 37.5867C47.0317 37.5867 46.4829 38.1825 46.4829 39.1683V41.6583H45.3154V36.6391H46.3809V37.7229C46.6448 36.9027 47.1226 36.502 47.8533 36.502C47.9343 36.502 48.0262 36.502 48.1272 36.5118V37.5956L48.1282 37.5965Z" fill="white"/>
</g>
<defs>
<clipPath id="clip0_1008_16587">
<rect width="51" height="50" fill="white"/>
</clipPath>
</defs>
</svg>
