<svg xmlns="http://www.w3.org/2000/svg" width="63.881" height="63.081" viewBox="0 0 63.881 63.081">
  <g id="Group_236" data-name="Group 236" transform="translate(-541.078 264.04)">
    <path id="Path_166" data-name="Path 166" d="M589.16-201.02c-2.033,0-4.076-.123-6.1.035a7.979,7.979,0,0,1-5.384-1.523,8.82,8.82,0,0,0-5.937-1.669c-2.142.151-4.3.056-6.455.021a2.037,2.037,0,0,0-1.844.83c-1.05,1.358-2.5,1.308-4.031,1.037a1.99,1.99,0,0,0-1.439.279,3.628,3.628,0,0,1-5.612-.664,1.169,1.169,0,0,0-1.459-.561,3.448,3.448,0,0,1-3.914-1.623,1.022,1.022,0,0,0-1.26-.51c-2.852.467-4.586-1.065-4.587-3.982,0-4.544.068-9.089-.036-13.631a7.016,7.016,0,0,1,1.327-4.589,9.406,9.406,0,0,0,1.863-6.708c-.146-2.022.01-4.065-.06-6.1a2.089,2.089,0,0,0-.633-1.415,3.552,3.552,0,0,1-1.154-4.086,1.416,1.416,0,0,0-.324-1.583,3.412,3.412,0,0,1,.594-5.375,1.233,1.233,0,0,0,.644-1.529,3.325,3.325,0,0,1,1.606-3.8,1.069,1.069,0,0,0,.545-1.349,3.62,3.62,0,0,1,3.756-4.5c5.1-.012,10.206-.074,15.306.051a6.364,6.364,0,0,1,3.28,1.2,10.51,10.51,0,0,0,7.083,1.89c1.859-.125,3.742.14,5.608.068a3.028,3.028,0,0,0,1.95-.845,3.6,3.6,0,0,1,3.909-1.071,1.732,1.732,0,0,0,1.907-.384,3.46,3.46,0,0,1,5.3.68,1.274,1.274,0,0,0,1.638.625,3.309,3.309,0,0,1,3.652,1.451,1.341,1.341,0,0,0,1.632.7c2.51-.485,4.353,1.146,4.359,3.737.012,5.022.075,10.046-.051,15.065a6.214,6.214,0,0,1-1.2,3.273,10.589,10.589,0,0,0-1.926,7.311c.127,1.825-.032,3.668.059,5.5a2.572,2.572,0,0,0,.74,1.614,3.423,3.423,0,0,1,1.085,3.976,1.438,1.438,0,0,0,.381,1.685,3.423,3.423,0,0,1-.63,5.3,1.324,1.324,0,0,0-.671,1.63A3.291,3.291,0,0,1,601-206.8c-.561.314-.6.653-.5,1.256.471,2.756-1.091,4.521-3.927,4.525Q592.867-201.016,589.16-201.02Zm-7.766-48.442c.247.049.252-.287.253-.384.026-2.786.064-5.573.011-8.358,0-.245-.613-.673-.954-.685a47.715,47.715,0,0,0-5.5-.008,11.281,11.281,0,0,1-8.082-2.191,6.1,6.1,0,0,0-3.939-1.108c-4.343.049-8.686.015-13.029.022a7.978,7.978,0,0,0-1.425.105,1.649,1.649,0,0,0-1.466,1.757,1.529,1.529,0,0,0,1.535,1.537c.987.109,1.983.13,2.976.171a13.052,13.052,0,0,1,2.024.072.974.974,0,0,1,.688.829.82.82,0,0,1-.633.707,4.169,4.169,0,0,1-1.3.078c-1.872.019-3.747-.028-5.615.069a1.792,1.792,0,0,0-1.84,1.814c.063.94.834,1.533,2.048,1.548,1.154.013,2.315-.071,3.46.035.7.064,1.861-.2,1.834.975-.025,1.131-1.107.789-1.792.808-1.911.053-3.826-.012-5.736.054-1.186.041-2.009.785-1.943,1.7a1.781,1.781,0,0,0,1.791,1.741c.671.065,1.349.089,2.024.1,1.593.019,3.189-.022,4.779.058.317.016.913.234.918.712.045.79-.5.839-.908.855-.452.017-.943.058-1.421.063-1.474.018-2.951-.022-4.419.067a1.572,1.572,0,0,0-1.629,1.585,1.622,1.622,0,0,0,1.525,1.8,9.535,9.535,0,0,0,1.543.117c3.347.01,6.694-.016,10.04.027.544.007,1.375.015,1.627.453.352.493-.321,1.11-.638,1.551-.7.968-1.528,1.837-2.242,2.794s-.447,2.166.569,2.3a2.751,2.751,0,0,0,1.968-.7c2.817-2.643,5.654-5.279,8.279-8.108,1.734-1.869,3.586-2.952,6.167-2.555.929.143,1.424-.212,1.393-1.229a2.938,2.938,0,0,1,1.868-2.926,3.323,3.323,0,0,1,3.573.533C580.318-250.285,580.845-249.877,581.394-249.462Zm8.558,25.506c.053.011.775.025.962.026,2.631.009,5.263-.006,7.894.015.838.007,1.116-.392,1.108-1.174-.02-1.873.119-3.757-.031-5.618a10.382,10.382,0,0,1,2.148-7.707,5.7,5.7,0,0,0,1.078-3.819c-.057-4.384-.011-8.769-.034-13.154a2.567,2.567,0,0,0-.324-1.584A2.422,2.422,0,0,0,601-257.83c-.53.094-1.1.824-1.347,1.405a5.275,5.275,0,0,0-.067,1.893,17.5,17.5,0,0,1-.065,2.742c-.075.443-.342,1.219-.922,1.212-.658-.013-.753-.823-.8-1.268-.115-1.185-.031-2.388-.051-3.584-.017-.994-.023-1.992-.119-2.98a1.628,1.628,0,0,0-1.725-1.631,1.665,1.665,0,0,0-1.667,1.705c-.073.751-.048,1.512-.063,2.269a15.43,15.43,0,0,1-.078,2.383c-.064.359-.269.962-.831.963-.608,0-.657-.528-.831-.87a2.5,2.5,0,0,1-.089-1.056c-.008-1.914.007-3.827-.015-5.74a1.6,1.6,0,0,0-1.494-1.719,1.685,1.685,0,0,0-1.926,1.411,5.029,5.029,0,0,0-.084,1.307c-.009,1.873.04,3.749-.049,5.619-.017.362-.4,1.068-.852,1.049-.588.009-.757-.546-.817-1a8.83,8.83,0,0,1-.036-1.064c0-1.515.028-3.031-.023-4.544a1.669,1.669,0,0,0-1.527-1.715c-1.022-.155-1.563.461-1.83,1.337a4.56,4.56,0,0,0-.133,1.3c-.01,3.348.022,6.7-.031,10.045-.01.611-.073,1.531-.538,1.825-.446.4-1.265-.391-1.789-.746-.986-.669-1.869-1.489-2.838-2.187a1.2,1.2,0,0,0-1.873.289,2.93,2.93,0,0,0,.031,1.836c.08.334.513.586.8.868q4.523,4.526,9.052,9.044a4.08,4.08,0,0,1,1.372,3.749c-.071.427,0,.876-.029,1.313-.055.823.168,1.226,1.135,1.166a2.973,2.973,0,0,1,3.093,1.812,3.128,3.128,0,0,1-.435,3.469C591.065-225.386,590.515-224.672,589.951-223.956Zm-33.933-17.011c-3.287,0-6.223-.019-9.156.04-.212,0-.578.575-.59.893a39.991,39.991,0,0,0-.006,4.9,12.455,12.455,0,0,1-2.329,8.766,6.456,6.456,0,0,0-.974,3.462c-.111,4.34-.048,8.684-.038,13.026a5.407,5.407,0,0,0,.141,1.417A1.659,1.659,0,0,0,544.9-207.1a1.591,1.591,0,0,0,1.547-1.538,12.9,12.9,0,0,0,.109-1.425c.019-1.075-.049-2.157.05-3.224.036-.382.106-1.079.694-1.09a1.062,1.062,0,0,1,.986.984,9.492,9.492,0,0,1,.1,1.051c.008,1.753-.007,3.506.013,5.259,0,.388-.021.934.206,1.128a3.14,3.14,0,0,0,1.741.932c1.015-.018,1.461-.906,1.509-1.846.069-1.351-.042-2.714.073-4.059.04-.477.17-1.217.675-1.257.816-.064,1.052.613,1.051,1.3q-.006,2.868.007,5.737c.008,1.42.658,2.306,1.682,2.325,1.086.021,1.816-.9,1.825-2.343.012-1.912.009-3.824,0-5.737,0-.692.128-1.387.943-1.326.621.046.762.841.789,1.316.1,1.708.007,3.425.061,5.136a1.681,1.681,0,0,0,1.8,1.8,1.587,1.587,0,0,0,1.676-1.763c.053-3.781.072-7.563.145-11.343.009-.468.141-1.162.448-1.333s.979.085,1.354.349c1.1.78,2.094,1.727,3.226,2.459a1.967,1.967,0,0,0,1.616.057,1.483,1.483,0,0,0,.64-1.238,2.667,2.667,0,0,0-.82-1.381q-4.54-4.585-9.135-9.115a4.547,4.547,0,0,1-1.631-3.447c.018-.637-.025-1.276,0-1.912.036-.845-.264-1.234-1.18-1.159a2.914,2.914,0,0,1-3.026-1.709,3.193,3.193,0,0,1,.46-3.577C554.949-239.616,555.365-240.137,556.018-240.967Zm8.414,25.287c0,3.227-.028,6.09.048,8.951.007.259.678.7,1.054.714a47.758,47.758,0,0,0,5.615.012,11.24,11.24,0,0,1,7.863,2.1,5.165,5.165,0,0,0,2.727,1.051c4.979.1,9.96.063,14.941.037a1.914,1.914,0,0,0,2.107-1.83c0-.986-.786-1.621-2.093-1.646-1.195-.024-2.391,0-3.586-.009-.708-.006-1.626.128-1.672-.869-.05-1.091.917-.878,1.6-.886,1.872-.022,3.746.018,5.618-.021,1.4-.029,2.276-.751,2.287-1.779.011-1.048-.845-1.689-2.28-1.7-.558-.006-1.116,0-1.673,0a15.71,15.71,0,0,1-2.5-.079c-.351-.061-.936-.391-.935-.874-.06-.607.653-.745,1.018-.773.331-.025.706-.036,1.065-.037,1.753,0,3.508.039,5.259-.026,1.375-.051,2.173-.76,2.174-1.751,0-1.025-.9-1.715-2.283-1.721-1.992-.009-3.987.049-5.974-.056-.434-.023-1.2-.265-1.255-.936-.023-.716.841-.71,1.282-.736,1.548-.092,3.106-.03,4.66-.041,1.663-.012,2.435-.6,2.423-1.812-.012-1.175-.717-1.682-2.365-1.683-3.626,0-7.252.02-10.877-.027a1.851,1.851,0,0,1-1.414-.584c-.164-.31.188-1.012.48-1.419.623-.872,1.35-1.672,2.046-2.492.646-.762,1.06-1.591.232-2.43-.868-.879-1.661-.366-2.382.318-.288.274-.588.537-.873.816-2.9,2.842-5.818,5.674-8.7,8.538a4.254,4.254,0,0,1-3.644,1.4c-.472-.053-.958.016-1.432-.028-.918-.085-1.325.3-1.3,1.224a2.937,2.937,0,0,1-1.8,2.965,3.342,3.342,0,0,1-3.586-.483C565.761-214.677,565.237-215.08,564.432-215.68Zm8.495-4.189a5.749,5.749,0,0,0,5.187-2.03c2.252-2.366,4.677-4.565,6.973-6.89a3.08,3.08,0,0,0,.878-1.729,21.13,21.13,0,0,0-.073-3.93,3.009,3.009,0,0,0-.761-1.669c-2.076-2.15-4.431-4.065-6.29-6.382-2.064-2.572-4.577-3.19-7.575-2.762a3.464,3.464,0,0,0-1.817.7c-2.812,2.652-5.618,5.318-8.275,8.122a6.292,6.292,0,0,0-1.2,2.975,5.808,5.808,0,0,0,.175,2.473,5.138,5.138,0,0,0,.978,2.292c2.277,2.4,4.748,4.612,7,7.035A5.262,5.262,0,0,0,572.927-219.869Z" fill="#003052"/>
  </g>
</svg>
