<svg xmlns="http://www.w3.org/2000/svg" width="69.172" height="62.842" viewBox="0 0 69.172 62.842">
  <path id="Path_167" data-name="Path 167" d="M210.292-235.844c-1.348-6.589-5.336-11.419-10.466-15.525-5.633-4.508-17.489-6.151-23.988,1.7-.86,1.038-1.42,1.033-2.344.022a15.589,15.589,0,0,0-12-5.411,13.414,13.414,0,0,0-1.517.107c-8.3,1.351-14.036,6.089-17.174,13.721-2.622,6.378-1.395,12.258,3.6,17.2.895.887,1.73,1.842,2.689,2.652.831.7.834,1.192.044,1.936a4.751,4.751,0,0,0-1.156,5.617,5.346,5.346,0,0,0,4.831,3.607c.772.037,1.087.148,1.176,1.055a5.681,5.681,0,0,0,5.731,5.145c.691.005.924.143,1.044.879a5.628,5.628,0,0,0,5.166,4.866c1.042.027,1.313.35,1.5,1.323.757,3.851,5.2,5.931,8.235,3.753a23.646,23.646,0,0,0,5.714-5.831c.4-.591.532-.642,1.123-.254a5.523,5.523,0,0,0,8.4-3.2c.214-.863.556-1.042,1.389-1.059a5.706,5.706,0,0,0,5.675-4.916c.121-.809.558-.828,1.114-.938a5.63,5.63,0,0,0,3.814-8.46.919.919,0,0,1,.2-1.391c1.1-1.046,2.173-2.126,3.232-3.218A14.2,14.2,0,0,0,210.292-235.844Zm-55.1,22.3a2.61,2.61,0,0,1-3.921.077c-1.46-1.354-1.674-2.875-.417-4.2,1.9-2.014,3.887-3.956,5.878-5.884a2.518,2.518,0,0,1,3-.5,3.581,3.581,0,0,1,2,3.162,2.853,2.853,0,0,1-.926,1.748C158.935-217.271,157.08-215.388,155.192-213.539Zm6.666,5.915a2.936,2.936,0,0,1-2.136,1.108,3.315,3.315,0,0,1-3.039-2.041,2.673,2.673,0,0,1,.678-3.087c3.014-3,6-6.018,9.026-9a2.664,2.664,0,0,1,4.211.041,2.693,2.693,0,0,1-.033,4.215C167.668-213.464,164.755-210.552,161.858-207.624Zm6.4,6.09a2.634,2.634,0,0,1-4.029-.133c-1.277-1.253-1.436-2.806-.256-4.038,2.1-2.192,4.274-4.316,6.437-6.448a2.423,2.423,0,0,1,1.894-.737,3.242,3.242,0,0,1,2.808,2.009,2.528,2.528,0,0,1-.589,3.1C172.443-205.694,170.377-203.587,168.259-201.534Zm10.5,1.945c-1.315,1.377-2.641,2.75-4.047,4.032a2.653,2.653,0,0,1-3.929-.289,2.665,2.665,0,0,1-.287-3.931c1.324-1.427,2.734-2.775,4.133-4.13a2.408,2.408,0,0,1,1.817-.676,4.87,4.87,0,0,1,2.86,2.393A2.074,2.074,0,0,1,178.755-199.59Zm26.264-25.143c-1.192,1.319-2.531,2.5-3.748,3.8-.51.544-.78.389-1.212-.068q-6.674-7.041-13.39-14.044c-.676-.7-1.379-1.956-2.542-.9-1.187,1.083.014,1.833.7,2.555q7.667,8.073,15.358,16.124a3,3,0,0,1,1,2.436,3.189,3.189,0,0,1-1.956,2.851,2.417,2.417,0,0,1-2.8-.855c-2.378-2.411-4.722-4.855-7.08-7.286-.332-.343-.673-.678-.995-1.03-.6-.659-1.325-.977-2.035-.3s-.406,1.4.217,2.036q3.185,3.262,6.348,6.544c.574.593,1.164,1.171,1.716,1.783,1.269,1.4,1.277,2.841.049,4.035a3,3,0,0,1-4.4.1c-2.719-2.746-5.409-5.52-8.1-8.295-.589-.607-1.238-.908-1.934-.307-.769.665-.49,1.387.108,2.039q.176.191.359.378c1.762,1.8,3.5,3.623,5.3,5.386a17.267,17.267,0,0,1,2.052,2.512,2.483,2.483,0,0,1-.436,3.6,2.882,2.882,0,0,1-3.912.11,16.216,16.216,0,0,1-2.623-2.879,5.409,5.409,0,0,0-3.006-2.375c-.684-.2-.736-.432-.529-1.094a5.61,5.61,0,0,0-3.554-7.233c-.489-.193-.839-.2-.534-.926a5.433,5.433,0,0,0-1.922-7.1,5.316,5.316,0,0,0-6.982.774c-.051.057-.152.07-.37.163a6.32,6.32,0,0,0-2.616-3.674,5.091,5.091,0,0,0-6.377.381c-.976.859-1.882,1.8-2.788,2.738-.4.414-.682.544-1.148.05-1.283-1.357-2.678-2.61-3.917-4a12.256,12.256,0,0,1-2.551-12.737c2.335-7.107,9.414-12.715,16.482-13.08,4.712-.243,8.2,2.062,11.21,5.373.47.517.079.758-.222,1.056q-3.788,3.766-7.579,7.53c-2.243,2.242-1.767,4.8,1.127,6.126a9.189,9.189,0,0,0,10.141-1.778c.868-.851,1.782-1.661,2.6-2.559A4.034,4.034,0,0,1,182.784-238c2.024.482,3.974,1.24,6.047,1.547a10.387,10.387,0,0,0,7.87-1.959c.737-.529,1.121-1.2.591-1.984-.558-.831-1.322-.64-2.032-.088-2.414,1.877-5.089,1.985-7.909,1.179a36.18,36.18,0,0,0-4.912-1.256,6.05,6.05,0,0,0-5.458,1.8c-1.007,1.02-2.039,2.014-3.082,3a6.676,6.676,0,0,1-7.185.984c-1.136-.614-1.225-1.046-.329-1.94,4.273-4.265,8.5-8.579,12.856-12.755,2.845-2.727,6.433-3.266,10.269-3.15,9.18.277,17.98,11.077,18.582,18.668A11.819,11.819,0,0,1,205.019-224.733Z" transform="translate(-141.464 255.152)" fill="#003052"/>
</svg>
